<?xml version="1.0" encoding="UTF-8"?>
<svg id="Layer_1" data-name="Layer 1" xmlns="http://www.w3.org/2000/svg" viewBox="0 0 591 591">
  <defs>
    <style>
      .cls-1 {
        fill: #fff;
      }
    </style>
  </defs>
  <path class="cls-1" d="M295.5,505.11c-115.58,0-209.61-94.03-209.61-209.61s94.03-209.61,209.61-209.61,209.61,94.03,209.61,209.61-94.03,209.61-209.61,209.61Z"/>
  <path d="M295.5,159.64c36.29,0,70.41,14.13,96.07,39.79,25.66,25.66,39.79,59.78,39.79,96.07s-14.13,70.41-39.79,96.07c-25.66,25.66-59.78,39.79-96.07,39.79s-70.41-14.13-96.07-39.79c-25.66-25.66-39.79-59.78-39.79-96.07s14.13-70.41,39.79-96.07c25.66-25.66,59.78-39.79,96.07-39.79M295.5,12.14C139.01,12.14,12.14,139.01,12.14,295.5s126.86,283.36,283.36,283.36,283.36-126.86,283.36-283.36S451.99,12.14,295.5,12.14h0Z"/>
</svg>